<svg width="22" height="20" viewBox="0 0 22 20" fill="none" xmlns="http://www.w3.org/2000/svg">
<path d="M10.9972 20L10.7352 19.8652C10.627 19.809 8.03572 18.4775 5.40461 16.1742C3.84986 14.809 2.60834 13.3933 1.71421 11.9551C0.575201 10.1236 0 8.25843 0 6.41573C0 4.80899 0.649236 3.18539 1.78255 1.97191C2.96712 0.702247 4.51618 0 6.14497 0C8.0585 0 9.84675 0.882022 11.0028 2.34831C12.1532 0.882022 13.9415 0 15.855 0C17.4838 0 19.0329 0.702247 20.2174 1.97191C21.3508 3.19101 22 4.80899 22 6.41573C22 8.25843 21.4248 10.1236 20.2858 11.9494C19.3917 13.3876 18.1501 14.809 16.5954 16.1685C13.9643 18.4719 11.373 19.809 11.2648 19.8596L10.9972 20Z" fill="#BDBDBD"/>
</svg>
