<svg width="23" height="25" viewBox="0 0 23 25" fill="none" xmlns="http://www.w3.org/2000/svg">
<path d="M21.9327 11.1323C21.6567 11.1323 21.4327 10.9083 21.4327 10.6323C21.4327 7.69435 20.2887 4.93135 18.2107 2.85435C18.0157 2.65935 18.0157 2.34235 18.2107 2.14735C18.4057 1.95235 18.7227 1.95235 18.9177 2.14735C21.1847 4.41335 22.4327 7.42635 22.4327 10.6323C22.4327 10.9083 22.2087 11.1323 21.9327 11.1323Z" fill="#A6A6A6" stroke="#A6A6A6" stroke-width="0.3"/>
<path d="M0.932617 11.1323C0.656617 11.1323 0.432617 10.9083 0.432617 10.6323C0.432617 7.42635 1.68062 4.41335 3.94762 2.14735C4.14262 1.95235 4.45962 1.95235 4.65462 2.14735C4.84962 2.34235 4.84962 2.65935 4.65462 2.85435C2.57662 4.93135 1.43262 7.69435 1.43262 10.6323C1.43262 10.9083 1.20862 11.1323 0.932617 11.1323V11.1323Z" fill="#A6A6A6" stroke="#A6A6A6" stroke-width="0.3"/>
<path d="M12.9326 4.81232C12.6566 4.81232 12.4326 4.58832 12.4326 4.31232V2.63232C12.4326 2.08132 11.9836 1.63232 11.4326 1.63232C10.8816 1.63232 10.4326 2.08132 10.4326 2.63232V4.31232C10.4326 4.58832 10.2086 4.81232 9.93262 4.81232C9.65662 4.81232 9.43262 4.58932 9.43262 4.31232V2.63232C9.43262 1.52932 10.3296 0.632324 11.4326 0.632324C12.5356 0.632324 13.4326 1.52932 13.4326 2.63232V4.31232C13.4326 4.58932 13.2086 4.81232 12.9326 4.81232Z" fill="#A6A6A6" stroke="#A6A6A6" stroke-width="0.3"/>
<path d="M11.4326 24.6323C9.50262 24.6323 7.93262 23.0623 7.93262 21.1323C7.93262 20.8563 8.15662 20.6323 8.43262 20.6323C8.70862 20.6323 8.93262 20.8563 8.93262 21.1323C8.93262 22.5103 10.0546 23.6323 11.4326 23.6323C12.8106 23.6323 13.9326 22.5103 13.9326 21.1323C13.9326 20.8563 14.1566 20.6323 14.4326 20.6323C14.7086 20.6323 14.9326 20.8563 14.9326 21.1323C14.9326 23.0623 13.3626 24.6323 11.4326 24.6323Z" fill="#A6A6A6" stroke="#A6A6A6" stroke-width="0.3"/>
<path d="M19.9326 21.6323H2.93262C2.10562 21.6323 1.43262 20.9593 1.43262 20.1323C1.43262 19.6933 1.62362 19.2783 1.95762 18.9923C3.53362 17.6603 4.43262 15.7223 4.43262 13.6703V10.6323C4.43262 6.77232 7.57262 3.63232 11.4326 3.63232C15.2926 3.63232 18.4326 6.77232 18.4326 10.6323V13.6703C18.4326 15.7233 19.3316 17.6603 20.8996 18.9853C21.2416 19.2783 21.4326 19.6933 21.4326 20.1323C21.4326 20.9593 20.7606 21.6323 19.9326 21.6323ZM11.4326 4.63232C8.12362 4.63232 5.43262 7.32332 5.43262 10.6323V13.6703C5.43262 16.0183 4.40462 18.2333 2.61162 19.7493C2.49662 19.8473 2.43262 19.9863 2.43262 20.1323C2.43262 20.4083 2.65662 20.6323 2.93262 20.6323H19.9326C20.2086 20.6323 20.4326 20.4083 20.4326 20.1323C20.4326 19.9863 20.3686 19.8473 20.2576 19.7523C18.4616 18.2333 17.4326 16.0173 17.4326 13.6703V10.6323C17.4326 7.32332 14.7416 4.63232 11.4326 4.63232Z" fill="#A6A6A6" stroke="#A6A6A6" stroke-width="0.3"/>
</svg>
