<svg width="17" height="20" viewBox="0 0 17 20" fill="none" xmlns="http://www.w3.org/2000/svg">
<path d="M17 17.2877L15.7793 4.39411C15.7552 4.10532 15.4966 3.89015 15.196 3.89015H12.6944C12.6643 1.73839 10.7941 0 8.50301 0C6.21188 0 4.3417 1.73839 4.30562 3.89015H1.80403C1.49735 3.89015 1.2508 4.10532 1.22073 4.39411L0.00601344 17.2877C0.00601344 17.3046 0 17.3216 0 17.3386C0 18.8052 1.4312 20 3.18712 20H13.8129C15.5748 20 17 18.8052 17 17.3386C17 17.3216 17 17.3046 17 17.2877ZM8.50301 1.10419C10.1507 1.10419 11.4917 2.34994 11.5278 3.89015H5.47825C5.51433 2.34994 6.85532 1.10419 8.50301 1.10419Z" fill="#BDBDBD"/>
</svg>
