<svg width="51" height="51" viewBox="0 0 51 51" fill="none" xmlns="http://www.w3.org/2000/svg">
<path d="M27.3741 6.1629C27.1227 6.11782 26.8652 6.19858 26.6846 6.37919C26.6846 6.37919 11.2315 21.8323 5.38293 27.6809C4.65133 28.4125 4.24023 29.4048 4.24023 30.4395C4.24023 31.4743 4.65133 32.4666 5.38293 33.1982C8.55133 36.3667 14.3555 42.1709 17.5241 45.3393C18.2557 46.0709 19.248 46.482 20.2828 46.482C21.3175 46.482 22.3098 46.0709 23.0414 45.3393C28.89 39.4907 44.343 24.0376 44.343 24.0376C44.5195 23.8612 44.6009 23.6112 44.5621 23.3647L42.3651 9.38467C42.3134 9.05616 42.0593 8.79647 41.7321 8.73776L27.3741 6.1629Z" fill="url(#paint0_linear_604_5101)"/>
<path d="M18.0476 24.7014C18.8088 23.94 20.0449 23.94 20.8062 24.7014C21.5675 25.4626 21.5675 26.6987 20.8062 27.46C20.0449 28.2214 18.8088 28.2214 18.0476 27.46C17.2862 26.6987 17.2862 25.4626 18.0476 24.7014Z" fill="white"/>
<path d="M28.6549 24.8262C29.4162 24.0649 30.6524 24.0649 31.4136 24.8262C32.1749 25.5874 32.1749 26.8235 31.4136 27.5849C30.6524 28.3461 29.4162 28.3461 28.6549 27.5849C27.8937 26.8235 27.8937 25.5874 28.6549 24.8262Z" fill="white"/>
<path d="M38.7786 12.1542C37.3286 10.7042 37.3286 8.34971 38.7786 6.89971C40.2286 5.44971 42.5831 5.44971 44.0331 6.89971C45.4831 8.34971 45.4831 10.7042 44.0331 12.1542C43.7111 12.4761 43.32 12.7371 42.9286 12.916L43.1817 14.5177C43.8816 14.2622 44.5754 13.8188 45.1365 13.2577C47.1956 11.1986 47.1956 7.85532 45.1365 5.79619C43.0775 3.73721 39.7342 3.73721 37.6751 5.79619C35.6161 7.85532 35.6161 11.1986 37.6751 13.2577C37.9796 13.5622 38.4741 13.5622 38.7786 13.2577C39.0831 12.9531 39.0831 12.4587 38.7786 12.1542Z" fill="url(#paint1_linear_604_5101)"/>
<path d="M24.2953 33.273C24.2453 33.637 24.4596 33.997 24.8207 34.1179C25.2291 34.2546 25.6717 34.0341 25.8083 33.6256C25.8238 33.5794 25.8546 33.464 25.8565 33.2803C25.8589 33.0476 25.8298 32.4813 25.7773 31.699C25.5246 27.9321 24.7422 18.965 24.7422 18.965C24.7048 18.5359 24.326 18.2181 23.8971 18.2554C23.468 18.2929 23.1502 18.6716 23.1876 19.1006C23.1876 19.1006 23.9682 28.0457 24.2203 31.8035C24.2693 32.5349 24.2923 33.1832 24.2953 33.273Z" fill="white"/>
<defs>
<linearGradient id="paint0_linear_604_5101" x1="22.1653" y1="5.47004" x2="22.1653" y2="45.1102" gradientUnits="userSpaceOnUse">
<stop stop-color="#FF7456"/>
<stop offset="1" stop-color="#FF0000"/>
</linearGradient>
<linearGradient id="paint1_linear_604_5101" x1="37.9032" y1="6.04325" x2="44.189" y2="13.5074" gradientUnits="userSpaceOnUse">
<stop stop-color="#477294"/>
<stop offset="1" stop-color="#1C3D57"/>
</linearGradient>
</defs>
</svg>
