<svg width="51" height="51" viewBox="0 0 51 51" fill="none" xmlns="http://www.w3.org/2000/svg">
<path d="M32.9239 9.99742C32.9239 9.13549 32.2251 8.43689 31.3633 8.43689C26.4463 8.43689 11.3114 8.43689 6.39452 8.43689C5.53258 8.43689 4.83398 9.13549 4.83398 9.99742V30.2845H32.9239V9.99742Z" fill="url(#paint0_linear_604_5089)"/>
<path d="M22.7804 8.43689H14.9775V16.422C14.9775 16.7032 15.1288 16.9625 15.3733 17.1009C15.618 17.2396 15.9183 17.2358 16.1593 17.0911C16.9478 16.6181 17.9357 16.0252 18.4774 15.7002C18.7246 15.5519 19.0333 15.5519 19.2804 15.7002C19.8221 16.0252 20.8101 16.6181 21.5986 17.0911C21.8396 17.2358 22.1399 17.2396 22.3844 17.1009C22.6291 16.9625 22.7804 16.7032 22.7804 16.422C22.7804 13.8188 22.7804 8.43689 22.7804 8.43689Z" fill="url(#paint1_linear_604_5089)"/>
<path d="M32.9239 30.2842H4.83398V35.7461C4.83398 36.5739 5.16278 37.3678 5.74803 37.953C6.33342 38.5384 7.12724 38.8672 7.95505 38.8672H43.8478C44.6754 38.8672 45.4694 38.5384 46.0546 37.953C46.64 37.3678 46.9688 36.5739 46.9688 35.7461C46.9688 33.2916 46.9688 26.3828 46.9688 26.3828C46.9688 26.3828 41.9562 18.0284 40.4008 15.4364C40.1188 14.9664 39.611 14.6787 39.0628 14.6787C37.176 14.6787 32.9239 14.6787 32.9239 14.6787V30.2842Z" fill="url(#paint2_linear_604_5089)"/>
<path d="M39.9062 38.8671C39.9062 39.7068 39.2255 40.3876 38.3858 40.3876C37.5461 40.3876 36.8653 39.7068 36.8653 38.8671C36.8653 38.0274 37.5461 37.3467 38.3858 37.3467C39.2255 37.3467 39.9062 38.0274 39.9062 38.8671Z" fill="#DDE6EF" stroke="url(#paint3_linear_604_5089)" stroke-width="4.7619"/>
<path d="M14.9375 38.8671C14.9375 39.7068 14.2568 40.3876 13.417 40.3876C12.5773 40.3876 11.8966 39.7068 11.8966 38.8671C11.8966 38.0274 12.5773 37.3467 13.417 37.3467C14.2568 37.3467 14.9375 38.0274 14.9375 38.8671Z" fill="#DDE6EF" stroke="url(#paint4_linear_604_5089)" stroke-width="4.7619"/>
<defs>
<linearGradient id="paint0_linear_604_5089" x1="17.3184" y1="8.06821" x2="17.3184" y2="29.5414" gradientUnits="userSpaceOnUse">
<stop stop-color="#FF7456"/>
<stop offset="1" stop-color="#FF0000"/>
</linearGradient>
<linearGradient id="paint1_linear_604_5089" x1="17.6381" y1="8.69213" x2="21.6298" y2="15.6429" gradientUnits="userSpaceOnUse">
<stop stop-color="#E9F5F8"/>
<stop offset="1" stop-color="#DDE6EF"/>
</linearGradient>
<linearGradient id="paint2_linear_604_5089" x1="19.2011" y1="15.3831" x2="26.0931" y2="38.8672" gradientUnits="userSpaceOnUse">
<stop stop-color="#E9F5F8"/>
<stop offset="1" stop-color="#DDE6EF"/>
</linearGradient>
<linearGradient id="paint3_linear_604_5089" x1="38.3858" y1="34.9657" x2="38.7268" y2="42.1349" gradientUnits="userSpaceOnUse">
<stop stop-color="#477294"/>
<stop offset="1" stop-color="#1C3D57"/>
</linearGradient>
<linearGradient id="paint4_linear_604_5089" x1="13.417" y1="34.9657" x2="13.7581" y2="42.1349" gradientUnits="userSpaceOnUse">
<stop stop-color="#477294"/>
<stop offset="1" stop-color="#1C3D57"/>
</linearGradient>
</defs>
</svg>
