<svg width="22" height="17" viewBox="0 0 22 17" fill="none" xmlns="http://www.w3.org/2000/svg">
<path d="M21.9799 0.15625H0.0200664C0.0180898 0.202527 0 0.245711 0 0.292203V15.0664C0 16.1326 0.867367 17 1.93359 17H20.0664C21.1326 17 22 16.1326 22 15.0664V0.292203C22 0.245711 21.9819 0.202527 21.9799 0.15625ZM13.5781 6.60156H8.42188C7.35565 6.60156 6.48828 5.7342 6.48828 4.66797C6.48828 3.60174 7.35565 2.73438 8.42188 2.73438H13.5781C14.6444 2.73438 15.5117 3.60174 15.5117 4.66797C15.5117 5.7342 14.6444 6.60156 13.5781 6.60156Z" fill="#BDBDBD"/>
</svg>
