<svg width="20" height="20" viewBox="0 0 20 20" fill="none" xmlns="http://www.w3.org/2000/svg">
<path d="M8.07892 0.120144H8.17892C9.74909 0.116194 11.2889 0.552938 12.6231 1.38071C13.9574 2.20848 15.0325 3.39405 15.7264 4.80259C16.4203 6.21114 16.7049 7.78612 16.548 9.34844C16.3911 10.9107 15.799 12.3977 14.8389 13.6401L19.4689 18.1701C19.5628 18.2621 19.6377 18.3716 19.6893 18.4924C19.7408 18.6133 19.7681 18.7431 19.7695 18.8745C19.7709 19.0059 19.7464 19.1363 19.6974 19.2582C19.6484 19.3802 19.5758 19.4912 19.4839 19.5851C19.392 19.679 19.2825 19.7539 19.1616 19.8055C19.0408 19.857 18.9109 19.8843 18.7795 19.8857C18.6481 19.8871 18.5177 19.8626 18.3958 19.8136C18.2739 19.7646 18.1628 19.6921 18.0689 19.6001L13.4389 15.0701C11.9744 16.2549 10.1526 16.9103 8.26892 16.9301H8.16892C5.98895 16.8675 3.91854 15.9605 2.39454 14.4005C0.87055 12.8405 0.0121574 10.7495 0.000480652 8.56863C-0.0111942 6.38779 0.82476 4.28769 2.33196 2.71145C3.83917 1.13521 5.89974 0.206092 8.07892 0.120144ZM8.24892 14.9301C9.51701 14.9162 10.7525 14.5264 11.799 13.8101C12.8455 13.0938 13.656 12.0832 14.128 10.9061C14.5999 9.72907 14.7122 8.43845 14.4504 7.19759C14.1887 5.95673 13.5648 4.82138 12.6576 3.93521C11.7504 3.04905 10.6008 2.45188 9.35414 2.21928C8.10749 1.98667 6.81985 2.12908 5.65416 2.62849C4.48846 3.12789 3.4971 3.96185 2.80551 5.02484C2.11392 6.08783 1.75317 7.33207 1.76892 8.60014C1.79002 10.2985 2.48428 11.919 3.69925 13.1058C4.91422 14.2927 6.55056 14.9488 8.24892 14.9301Z" fill="#929292"/>
</svg>
