<svg width="25" height="23" viewBox="0 0 25 23" fill="none" xmlns="http://www.w3.org/2000/svg">
<path d="M12.0809 22.6323L11.7951 22.484C11.677 22.4222 8.85023 20.9576 5.97992 18.4239C4.28383 16.9222 2.92944 15.3649 1.95403 13.7829C0.711476 11.7683 0.0839844 9.71659 0.0839844 7.68963C0.0839844 5.92221 0.792242 4.13626 2.02859 2.80143C3.32085 1.4048 5.01073 0.632324 6.78758 0.632324C8.87508 0.632324 10.8259 1.60255 12.0871 3.21547C13.3421 1.60255 15.2929 0.632324 17.3804 0.632324C19.1572 0.632324 20.8471 1.4048 22.1394 2.80143C23.3757 4.14244 24.084 5.92221 24.084 7.68963C24.084 9.71659 23.4565 11.7683 22.2139 13.7767C21.2385 15.3587 19.8841 16.9222 18.188 18.4177C15.3177 20.9514 12.4909 22.4222 12.3729 22.4778L12.0809 22.6323ZM6.78758 1.86828C3.88 1.86828 1.32654 4.58738 1.32654 7.68963C1.32654 11.793 4.30868 15.2908 6.80622 17.4969C9.04904 19.4745 11.3043 20.7969 12.0809 21.2295C12.8637 20.7969 15.1376 19.4621 17.3804 17.4784C19.8717 15.2722 22.8414 11.7868 22.8414 7.68963C22.8414 4.58738 20.288 1.86828 17.3804 1.86828C15.4109 1.86828 13.5906 2.9312 12.6276 4.63682L12.0871 5.59468L11.5466 4.63682C10.5774 2.9312 8.75704 1.86828 6.78758 1.86828Z" fill="#A6A6A6"/>
</svg>
