<svg width="74" height="71" viewBox="0 0 74 71" fill="none" xmlns="http://www.w3.org/2000/svg">
<path d="M0.217773 35.4779C0.217773 31.7723 4.63849 28.7818 5.67866 25.4013C6.78384 21.9557 5.02856 16.9499 7.17391 14.0244C9.31926 11.0989 14.5851 11.229 17.5106 9.14863C20.4361 7.06829 21.8663 1.93245 25.3769 0.827269C28.6924 -0.212901 32.9181 2.97262 36.6237 2.97262C40.3293 2.97262 44.555 -0.212901 47.8706 0.827269C51.3161 1.93245 52.8114 7.06829 55.7368 9.14863C58.6623 11.294 63.9282 11.0989 66.0735 14.0244C68.1539 16.9499 66.3986 21.8907 67.5688 25.4013C68.6739 28.7818 73.0297 31.7073 73.0297 35.4779C73.0297 39.1835 68.6089 42.174 67.5688 45.5546C66.4636 49.0001 68.2189 54.0059 66.0735 56.9314C63.9282 59.7919 58.6623 59.6619 55.7368 61.8072C52.8114 63.8876 51.3811 69.0234 47.8706 70.1286C44.49 71.2338 40.3293 67.9832 36.6237 67.9832C32.9181 67.9832 28.6924 71.1688 25.3769 70.1286C21.9313 69.0234 20.4361 63.8876 17.5106 61.8072C14.5851 59.6619 9.31926 59.8569 7.17391 56.9314C5.09357 54.0059 6.84886 49.0651 5.67866 45.5546C4.63849 42.174 0.217773 39.1835 0.217773 35.4779Z" fill="#FF0000"/>
</svg>
